<svg width="512" height="512" xmlns="http://www.w3.org/2000/svg">
 <!-- Created with UXWing SVG Editor - https://uxwing.com/svg-icon-editor/ -->
 <g>
  <title>background</title>
  <rect fill="none" id="canvas_background" height="514" width="514" y="-1" x="-1"/>
  <g display="none" overflow="visible" y="0" x="0" height="100%" width="100%" id="canvasGrid">
   <rect fill="url(#gridpattern)" stroke-width="0" y="0" x="0" height="100%" width="100%"/>
  </g>
 </g>
 <g>
  <title>Layer 1</title>
  <path stroke="#FF0000" id="svg_1" d="m0.764991,256.970635l0,0c0,-140.556488 114.39126,-254.500028 255.500056,-254.500028l0,0c67.762794,0 132.750224,26.81332 180.665792,74.541333c47.915551,47.728013 74.834195,112.461103 74.834195,179.958695l0,0c0,140.556454 -114.391243,254.499994 -255.499987,254.499994l0,0c-141.108796,0 -255.500056,-113.943557 -255.500056,-254.499994zm255.500056,-254.500028l0,509.000023m-255.500056,-254.499994l511.000043,0" stroke-width="0.001" fill="#BBBBBB"/>
 </g>
</svg>