<svg width="122.88000000000001" height="122.88000000000001" xmlns="http://www.w3.org/2000/svg">
 <style type="text/css">.st0{fill-rule:evenodd;clip-rule:evenodd;fill:#6BBE66;}</style>

 <g>
  <title>background</title>
  <rect fill="none" id="canvas_background" height="13" width="13" y="-1" x="-1"/>
 </g>
 <g>
  <title>Layer 1</title>
  <g id="svg_1">
   <path id="svg_2" d="m61.44,0c33.93,0 61.44,27.51 61.44,61.44c0,33.93 -27.51,61.44 -61.44,61.44c-33.93,0 -61.44,-27.51 -61.44,-61.44c0,-33.93 27.51,-61.44 61.44,-61.44" class="st0"/>
   <path stroke="null" id="svg_3" d="m-0.108831,61.510292l0,0c0,-34.08384 27.587769,-61.71425 61.619013,-61.71425l0,0c16.34237,0 32.015405,6.502019 43.571215,18.075685c11.555806,11.573667 18.047782,27.270931 18.047782,43.638564l0,0c0,34.083832 -27.587765,61.714242 -61.618997,61.714242l0,0c-34.031244,0 -61.619013,-27.630414 -61.619013,-61.714242zm61.619013,-61.71425l0,123.428492m-61.619013,-61.714242l123.23801,0" stroke-opacity="null" stroke-width="null" fill="#118413"/>
  </g>
 </g>
</svg>